<svg xmlns="http://www.w3.org/2000/svg" viewBox="0 0 786.2 315.25"><defs><style>.cls-1{fill:#24415b;}.cls-2{fill:#2d9bdb;}</style></defs><g id="LOGOS"><g id="LOGO_BLUE_1_BLUE_2"><path id="COLUMN" class="cls-1" d="M606.78,203.78h32l-.24-2.1-2-.12c-4.2-.37-4.82-.87-4.82-2v-38.2a15.85,15.85,0,0,1,8.53-2.47c5.81,0,9.76,2.35,9.76,11.74v28.81c0,1,0,1.85-4.2,2.1l-2,.12-.37,2.1h32.14l-.37-2.1-1.36-.12c-5.44-.74-6-1.24-6-2.1V166.82c0-6.06-1.24-11.74-4.21-14.71a13.77,13.77,0,0,0-10.13-4.45c-7.79,0-15.21,5.56-21.52,10.75h-.24l.24-10.63L606.29,155l-.12,1.61,2.47.62c4.2,1.23,5.19,2.22,5.19,9.89v32.39c0,1.48-1.36,1.85-4.94,2.1l-1.73.12Zm-106.44,0h32l-.37-2.1-1.73-.12c-4.57-.37-4.94-.87-4.94-2V161.13a16,16,0,0,1,7.66-2.22c6.06,0,10,2.47,10,11.74v28.81c0,1-.49,1.85-4.07,2.1l-2.11.12-.37,2.1H568l-.37-2.1-1.61-.12c-4.57-.62-5.07-.87-5.07-1.85V162.12c1-2,4.33-3.21,7.67-3.21,6,0,9.89,2.47,9.89,11.74v28.81c0,1,.12,1.85-4,2.1l-2.1.12-.37,2.1h32l-.37-2.1-1.36-.12c-5.69-.74-5.94-1.24-5.94-2.1v-29.3c0-9.4-1.23-15.08-4.2-18a13.79,13.79,0,0,0-10.14-4.45c-7.79,0-15.21,5.19-21.39,11.12l-.61-.12a13.84,13.84,0,0,0-3.47-6.67,13.7,13.7,0,0,0-10.13-4.33c-7.54,0-15,5.44-20.9,10.88h-.24l.24-10.76L499.85,155l-.12,1.61,2.47.62c4.2,1.23,5.19,2.22,5.19,9.89v32.39c0,1.48-1.36,1.85-4.94,2.1l-1.74.12Zm-29.17,2,25.47-6.18.24-1.48-3.46-.87c-3.58-1-4.33-2.47-4.33-8.4V149.51H463l.49,2.1,1.86.13c5.07.37,5.93.74,5.93,2v38.07a15.69,15.69,0,0,1-7.91,2.48c-6.06,0-10-2.48-9.77-11.63l.37-33.13H427.53l.37,2.1,1.85.13c5.69.62,6.18,1.11,6.18,1.73l-.24,32.64c-.25,6.42,1.11,11.74,4.08,14.83s5.56,4.58,9.76,4.58c7.67,0,15-5.2,21.51-10.88h.38Zm-76.77-2h31.52l-.37-2.1-1.48-.12c-4.08-.37-5.07-.87-5.07-2V119.84l-25.34,6.93-.25,1.48,3.21,1.36c3.46,1.11,4.33,2.22,4.33,8.28v61.57c0,1.48-.74,1.85-4.33,2.1l-1.73.12Zm-36.35-.86a8,8,0,0,1-5.81-2.1c-3.21-3.46-5.56-10.63-5.56-25.47,0-15.21,4.08-24.85,11.74-24.85a7.21,7.21,0,0,1,5.57,2.1c3.21,3.22,5.68,10.51,5.68,25.1,0,15-4.08,25.22-11.62,25.22m-.49,2.6c18.91,0,31.65-13,31.65-29.3,0-15.46-11.13-28.56-30.17-28.56-18.79,0-31.65,13-31.65,29.05,0,15.7,11,28.81,30.17,28.81m-71.09-.25a75.81,75.81,0,0,0,23.61-4.33l5.81.12,3.46-24.84h-4.2s-5.44,12.48-5.44,12.61c-4.57,8.4-11.87,13.47-22.37,13.47-14.1,0-24.11-14-24.11-37.09,0-22,8.9-37.21,25.09-37.21a31.17,31.17,0,0,1,13.48,3l11.5,22.38h3.95l-.86-26.83-9.77,2.35c-4.08-2.1-11.37-4-19-4-29.54,0-46.23,18.55-46.23,41.29,0,22.5,17.18,39.07,45.12,39.07"/><g id="ICON"><rect class="cls-2" x="136.81" y="150.77" width="62.45" height="13.71"/><path class="cls-2" d="M215.31,143.84H120.76v-6a7.73,7.73,0,0,1,7.73-7.73h79.08a7.74,7.74,0,0,1,7.74,7.73Z"/><path class="cls-2" d="M225.51,123.2H110.56v-6a7.74,7.74,0,0,1,7.73-7.74h99.48a7.75,7.75,0,0,1,7.74,7.74Z"/><rect class="cls-2" x="136.81" y="171.41" width="28.5" height="13.71"/><rect class="cls-2" x="170.76" y="171.41" width="28.5" height="13.71"/><rect class="cls-2" x="136.81" y="192.05" width="28.5" height="13.71"/><rect class="cls-2" x="170.76" y="192.05" width="28.5" height="13.71"/></g></g></g></svg>